HIERARCHY
ROOT pelvis
{
	OFFSET 0.003123 -0.351407 0.012037
	CHANNELS 6 Xposition Yposition Zposition Zrotation Yrotation Xrotation 
	JOINT left_hip
	{
		OFFSET 0.058189 -0.092763 -0.026001
		CHANNELS 3 Zrotation Yrotation Xrotation
		JOINT left_knee
		{
			OFFSET 0.054695 -0.378753 -0.009396
			CHANNELS 3 Zrotation Yrotation Xrotation
			JOINT left_ankle
			{
				OFFSET -0.043453 -0.403059 -0.031876
				CHANNELS 3 Zrotation Yrotation Xrotation
				JOINT left_foot
				{
					OFFSET 0.047257 -0.057997 0.118216
					CHANNELS 3 Zrotation Yrotation Xrotation
					End Site
					{
						OFFSET 0.000000 0.000000 0.000000
					}
				}
			}
		}
	}
	JOINT right_hip
	{
		OFFSET -0.063267 -0.103908 -0.021250
		CHANNELS 3 Zrotation Yrotation Xrotation
		JOINT right_knee
		{
			OFFSET -0.044210 -0.362380 -0.016824
			CHANNELS 3 Zrotation Yrotation Xrotation
			JOINT right_ankle
			{
				OFFSET 0.015417 -0.410728 -0.020192
				CHANNELS 3 Zrotation Yrotation Xrotation
				JOINT right_foot
				{
					OFFSET -0.038812 -0.058328 0.119049
					CHANNELS 3 Zrotation Yrotation Xrotation
					End Site
					{
						OFFSET 0.000000 0.000000 0.000000
					}
				}
			}
		}
	}
	JOINT spine_1
	{
		OFFSET -0.002763 0.109891 -0.027618
		CHANNELS 3 Zrotation Yrotation Xrotation
		JOINT spine_2
		{
			OFFSET 0.009448 0.131853 -0.005940
			CHANNELS 3 Zrotation Yrotation Xrotation
			JOINT spine_3
			{
				OFFSET -0.011330 0.052235 0.028447
				CHANNELS 3 Zrotation Yrotation Xrotation
				JOINT neck
				{
					OFFSET -0.012164 0.165167 -0.031615
					CHANNELS 3 Zrotation Yrotation Xrotation
					JOINT head
					{
						OFFSET 0.024783 0.160452 0.020737
						CHANNELS 3 Zrotation Yrotation Xrotation
						End Site
						{
							OFFSET 0.000000 0.000000 0.000000
						}
					}
				}
				JOINT left_collar
				{
					OFFSET 0.046364 0.084944 -0.007220
					CHANNELS 3 Zrotation Yrotation Xrotation
					JOINT left_shoulder
					{
						OFFSET 0.119239 0.057728 -0.015461
						CHANNELS 3 Zrotation Yrotation Xrotation
						JOINT left_elbow
						{
							OFFSET 0.254123 -0.072151 -0.042459
							CHANNELS 3 Zrotation Yrotation Xrotation
							JOINT left_wrist
							{
								OFFSET 0.251987 0.023221 -0.002472
								CHANNELS 3 Zrotation Yrotation Xrotation
								JOINT left_index_1
								{
									OFFSET 0.101902 -0.008688 0.019351
									CHANNELS 3 Zrotation Yrotation Xrotation
									JOINT left_index_2
									{
										OFFSET 0.030149 -0.011154 0.001151
										CHANNELS 3 Zrotation Yrotation Xrotation
										JOINT left_index_3
										{
											OFFSET 0.006504 -0.021577 -0.002433
											CHANNELS 3 Zrotation Yrotation Xrotation
											End Site
											{
												OFFSET 0.000000 0.000000 0.000000
											}
										}
									}
								}
								JOINT left_middle_1
								{
									OFFSET 0.109398 -0.006328 -0.003981
									CHANNELS 3 Zrotation Yrotation Xrotation
									JOINT left_middle_2
									{
										OFFSET 0.026472 -0.015218 -0.004641
										CHANNELS 3 Zrotation Yrotation Xrotation
										JOINT left_middle_3
										{
											OFFSET 0.005022 -0.023347 -0.001911
											CHANNELS 3 Zrotation Yrotation Xrotation
											End Site
											{
												OFFSET 0.000000 0.000000 0.000000
											}
										}
									}
								}
								JOINT left_pinky_1
								{
									OFFSET 0.084047 -0.014539 -0.043750
									CHANNELS 3 Zrotation Yrotation Xrotation
									JOINT left_pinky_2
									{
										OFFSET 0.012124 -0.014448 -0.005375
										CHANNELS 3 Zrotation Yrotation Xrotation
										JOINT left_pinky_3
										{
											OFFSET 0.003798 -0.018853 0.000167
											CHANNELS 3 Zrotation Yrotation Xrotation
											End Site
											{
												OFFSET 0.000000 0.000000 0.000000
											}
										}
									}
								}
								JOINT left_ring_1
								{
									OFFSET 0.097444 -0.009268 -0.027345
									CHANNELS 3 Zrotation Yrotation Xrotation
									JOINT left_ring_2
									{
										OFFSET 0.023561 -0.016057 -0.001895
										CHANNELS 3 Zrotation Yrotation Xrotation
										JOINT left_ring_3
										{
											OFFSET 0.004257 -0.023548 0.000814
											CHANNELS 3 Zrotation Yrotation Xrotation
											End Site
											{
												OFFSET 0.000000 0.000000 0.000000
											}
										}
									}
								}
								JOINT left_thumb_1
								{
									OFFSET 0.040636 -0.017977 0.025611
									CHANNELS 3 Zrotation Yrotation Xrotation
									JOINT left_thumb_2
									{
										OFFSET 0.021637 -0.017639 0.011623
										CHANNELS 3 Zrotation Yrotation Xrotation
										JOINT left_thumb_3
										{
											OFFSET 0.024002 -0.008356 0.006548
											CHANNELS 3 Zrotation Yrotation Xrotation
											End Site
											{
												OFFSET 0.000000 0.000000 0.000000
											}
										}
									}
								}
							}
						}
					}
				}
				JOINT right_collar
				{
					OFFSET -0.047695 0.084339 -0.013400
					CHANNELS 3 Zrotation Yrotation Xrotation
					JOINT right_shoulder
					{
						OFFSET -0.102578 0.053524 -0.012669
						CHANNELS 3 Zrotation Yrotation Xrotation
						JOINT right_elbow
						{
							OFFSET -0.271150 -0.036492 -0.026467
							CHANNELS 3 Zrotation Yrotation Xrotation
							JOINT right_wrist
							{
								OFFSET -0.249267 -0.004533 -0.015325
								CHANNELS 3 Zrotation Yrotation Xrotation
								JOINT right_index_1
								{
									OFFSET -0.099881 -0.011783 0.019600
									CHANNELS 3 Zrotation Yrotation Xrotation
									JOINT right_index_2
									{
										OFFSET -0.030148 -0.011154 0.001151
										CHANNELS 3 Zrotation Yrotation Xrotation
										JOINT right_index_3
										{
											OFFSET -0.006505 -0.021577 -0.002432
											CHANNELS 3 Zrotation Yrotation Xrotation
											End Site
											{
												OFFSET 0.000000 0.000000 0.000000
											}
										}
									}
								}
								JOINT right_middle_1
								{
									OFFSET -0.107376 -0.009422 -0.003734
									CHANNELS 3 Zrotation Yrotation Xrotation
									JOINT right_middle_2
									{
										OFFSET -0.026472 -0.015218 -0.004641
										CHANNELS 3 Zrotation Yrotation Xrotation
										JOINT right_middle_3
										{
											OFFSET -0.005022 -0.023347 -0.001911
											CHANNELS 3 Zrotation Yrotation Xrotation
											End Site
											{
												OFFSET 0.000000 0.000000 0.000000
											}
										}
									}
								}
								JOINT right_pinky_1
								{
									OFFSET -0.082027 -0.017634 -0.043503
									CHANNELS 3 Zrotation Yrotation Xrotation
									JOINT right_pinky_2
									{
										OFFSET -0.012123 -0.014448 -0.005374
										CHANNELS 3 Zrotation Yrotation Xrotation
										JOINT right_pinky_3
										{
											OFFSET -0.003798 -0.018852 0.000167
											CHANNELS 3 Zrotation Yrotation Xrotation
											End Site
											{
												OFFSET 0.000000 0.000000 0.000000
											}
										}
									}
								}
								JOINT right_ring_1
								{
									OFFSET -0.095423 -0.012362 -0.027099
									CHANNELS 3 Zrotation Yrotation Xrotation
									JOINT right_ring_2
									{
										OFFSET -0.023561 -0.016057 -0.001895
										CHANNELS 3 Zrotation Yrotation Xrotation
										JOINT right_ring_3
										{
											OFFSET -0.004257 -0.023548 0.000816
											CHANNELS 3 Zrotation Yrotation Xrotation
											End Site
											{
												OFFSET 0.000000 0.000000 0.000000
											}
										}
									}
								}
								JOINT right_thumb_1
								{
									OFFSET -0.038613 -0.021074 0.025861
									CHANNELS 3 Zrotation Yrotation Xrotation
									JOINT right_thumb_2
									{
										OFFSET -0.021636 -0.017639 0.011623
										CHANNELS 3 Zrotation Yrotation Xrotation
										JOINT right_thumb_3
										{
											OFFSET -0.024004 -0.008353 0.006547
											CHANNELS 3 Zrotation Yrotation Xrotation
											End Site
											{
												OFFSET 0.000000 0.000000 0.000000
											}
										}
									}
								}
							}
						}
					}
				}
			}
		}
	}
}
MOTION
Frames: 4
Frame Time: 0.050000
0.057503 0.933043 0.270834 -4.657256 -7.223487 3.456916 7.411754 -1.342161 -22.102111 1.507465 -0.918396 6.771050 10.962661 24.687634 20.554138 0.000000 0.000000 0.000000 0.557717 -1.007105 8.005572 1.673495 0.186892 8.493947 -0.951483 1.825796 -4.739206 0.000000 0.000000 0.000000 4.463545 -0.159577 2.648334 -7.429035 -3.537274 -26.374171 11.682788 3.170975 35.954715 7.445618 4.952313 -30.048821 0.000000 0.000000 0.000000 13.413464 6.859798 -1.688707 -92.336708 -20.246141 -2.800489 -12.698385 7.392460 -1.758657 2.593844 -2.643689 4.230965 -4.917257 4.689637 1.700599 -5.489944 2.190010 4.392797 0.000000 0.000000 0.000000 -8.130927 0.101770 -1.250845 2.709044 0.439557 4.538468 0.000000 0.000000 0.000000 -13.482353 -2.524885 -7.545411 23.415901 0.128341 4.761368 0.000000 0.000000 0.000000 -12.457285 -4.989534 -3.413342 11.444832 0.727638 10.629605 0.000000 0.000000 0.000000 -5.782601 2.709322 4.827529 19.985378 2.503813 -4.915045 0.000000 0.000000 0.000000 -10.211160 5.059797 2.977350 57.615377 41.484627 9.138686 -10.866558 44.593773 -4.173261 -7.355637 0.016788 -14.613633 7.819660 -4.273685 0.276423 15.467796 -1.386903 6.120505 0.000000 0.000000 0.000000 18.778011 -16.401210 2.950445 -1.282552 1.125906 -16.794912 0.000000 0.000000 0.000000 55.601828 -19.909896 5.383368 -72.237730 -8.393724 -45.750703 0.000000 0.000000 0.000000 25.431759 -8.380421 4.607274 -9.345653 4.074013 -19.302831 0.000000 0.000000 0.000000 8.802034 19.903174 -0.575108 -34.052081 -30.596760 28.585354 0.000000 0.000000 0.000000 
0.056325 0.938845 0.295520 -5.681592 -6.882668 3.520232 8.094417 -1.115081 -19.280692 0.820569 -0.772303 6.387231 10.874427 23.908709 15.723468 0.000000 0.000000 0.000000 0.742507 -0.866597 6.533933 3.161741 0.220486 15.297587 -0.390251 1.480639 -2.906039 0.000000 0.000000 0.000000 4.296575 0.060897 0.853837 -6.481710 -3.542590 -25.329848 11.526460 2.595942 35.965234 8.776103 5.071117 -30.078472 0.000000 0.000000 0.000000 12.247313 5.956506 -1.524895 -91.569019 -21.264532 -2.174743 -13.056227 5.862050 -1.471833 1.641142 -2.852535 4.431619 -4.072601 0.354307 0.309145 -6.858713 3.200949 6.213341 0.000000 0.000000 0.000000 -9.196371 0.491735 -1.245752 7.346102 -0.915861 -1.141672 0.000000 0.000000 0.000000 -15.956917 -3.059096 -8.785481 18.302390 0.275723 7.081836 0.000000 0.000000 0.000000 -14.547435 -4.644096 -3.310198 16.300508 0.375267 2.426441 0.000000 0.000000 0.000000 -3.730112 1.231241 2.769416 16.606616 2.373596 -3.938172 0.000000 0.000000 0.000000 -8.329975 6.672761 3.632457 41.242901 45.269554 5.165029 -25.306395 48.174577 -10.782950 -3.573488 -3.062940 -12.399889 0.089559 -0.718398 0.159398 13.637549 -1.191996 3.640917 0.000000 0.000000 0.000000 16.229167 -6.334859 0.165383 -3.974917 1.950937 -12.732729 0.000000 0.000000 0.000000 45.751350 7.472535 -12.859805 -54.690518 2.101638 -3.729596 0.000000 0.000000 0.000000 19.741100 5.162933 -3.003614 -10.606482 -0.245352 -3.506108 0.000000 0.000000 0.000000 -1.607148 -0.521354 -0.377015 -12.519709 -5.853226 2.681246 0.000000 0.000000 0.000000 
0.052320 0.944969 0.315050 -5.980960 -6.427341 3.462114 8.680706 -1.000887 -18.107272 0.196852 -0.679862 6.387493 11.004210 24.168772 16.056747 0.000000 0.000000 0.000000 0.386832 -0.360530 2.646699 4.201815 0.330648 25.036475 1.097469 1.566110 0.827371 0.000000 0.000000 0.000000 2.627644 0.055238 0.422077 -4.956473 -3.839661 -24.865170 11.977685 2.732789 35.764195 9.372065 5.360187 -31.388775 0.000000 0.000000 0.000000 10.218313 5.760920 -1.628651 -89.919866 -23.915022 -1.198184 -14.258263 6.822212 -1.759454 3.344729 -4.107549 6.305514 -5.159474 0.525331 0.471860 -18.139885 1.922739 -1.346873 0.000000 0.000000 0.000000 -10.997588 4.068189 -0.013666 -1.296382 -2.531897 -14.170264 0.000000 0.000000 0.000000 -29.588734 6.428596 -7.243704 33.997938 4.974686 -12.869628 0.000000 0.000000 0.000000 -16.584657 -0.631014 -1.536282 3.677243 -0.707085 -11.838127 0.000000 0.000000 0.000000 -9.510809 -8.383839 -1.523559 27.884900 16.397033 1.147441 0.000000 0.000000 0.000000 -6.646447 6.757518 3.598208 21.841584 49.060243 -0.634187 -36.550368 45.224118 -14.662955 -3.264573 -1.214059 -8.461227 -1.830342 -3.408235 1.044405 3.785171 2.023844 -7.715451 0.000000 0.000000 0.000000 10.533205 -3.009794 -0.218522 -9.474451 2.115054 -13.399560 0.000000 0.000000 0.000000 21.770631 11.222758 -16.546925 -22.664460 0.408049 0.483740 0.000000 0.000000 0.000000 14.328925 3.621835 -2.507712 -17.234201 0.207362 -13.155337 0.000000 0.000000 0.000000 -5.669103 -4.870246 0.346640 -0.211214 1.036839 -0.423696 0.000000 0.000000 0.000000 
0.054205 0.948998 0.336663 -7.281745 -5.368447 3.875344 10.389552 -0.782876 -17.838478 -1.059378 -0.570580 7.218055 10.929121 24.011941 15.283775 0.000000 0.000000 0.000000 1.701736 0.236377 -2.474007 5.660646 0.102069 33.538009 0.330957 -3.904701 6.884682 0.000000 0.000000 0.000000 4.379544 0.133949 0.271152 -5.652252 -3.718290 -25.339353 12.305220 2.417410 36.165772 9.123840 5.575085 -32.528825 0.000000 0.000000 0.000000 7.830297 4.977841 -1.537906 -86.080061 -22.434095 -2.833414 -17.381126 -0.181040 -0.230754 1.931353 -1.497091 9.695379 -4.271335 4.384275 1.813261 -19.877947 4.174270 1.118345 0.000000 0.000000 0.000000 -8.361887 7.487423 1.987082 -5.332466 -2.647331 -14.340938 0.000000 0.000000 0.000000 -21.515778 14.093270 -1.431300 18.795470 6.490353 -20.831143 0.000000 0.000000 0.000000 -15.616712 3.555025 0.047521 2.508509 -0.388304 -11.681968 0.000000 0.000000 0.000000 -11.773297 -4.166363 1.768212 36.530324 16.167165 -2.676236 0.000000 0.000000 0.000000 -5.381396 7.233817 3.781074 0.724094 47.688206 -7.779741 -42.880085 39.100861 -14.763846 -7.337266 -0.770692 -7.843022 1.412319 -2.617374 0.839396 -14.898825 2.589339 -11.267296 0.000000 0.000000 0.000000 3.415003 1.034282 -1.053559 -4.045727 1.853986 -9.859405 0.000000 0.000000 0.000000 1.035205 13.977466 -18.153869 -2.498407 -0.289787 1.276162 0.000000 0.000000 0.000000 2.936058 4.619795 -3.107560 -7.883571 1.617879 -14.127172 0.000000 0.000000 0.000000 -5.075690 -2.572682 -0.941136 5.611998 1.521099 0.903952 0.000000 0.000000 0.000000 
